<svg width="47" height="30" viewBox="0 0 47 30" fill="none" xmlns="http://www.w3.org/2000/svg">
<path d="M23.4883 25.4062C22.4336 26.6693 20.9427 27.6523 19.0156 28.3555C17.0885 29.0456 14.9531 29.3906 12.6094 29.3906C10.1484 29.3906 7.98698 28.8568 6.125 27.7891C4.27604 26.7083 2.84375 25.1458 1.82812 23.1016C0.825521 21.0573 0.311198 18.6549 0.285156 15.8945V13.9609C0.285156 11.1224 0.760417 8.66797 1.71094 6.59766C2.67448 4.51432 4.05469 2.92578 5.85156 1.83203C7.66146 0.72526 9.77734 0.171875 12.1992 0.171875C15.5716 0.171875 18.2083 0.979167 20.1094 2.59375C22.0104 4.19531 23.1367 6.53255 23.4883 9.60547H17.7852C17.5247 7.97786 16.9453 6.78646 16.0469 6.03125C15.1615 5.27604 13.9375 4.89844 12.375 4.89844C10.3828 4.89844 8.86589 5.64714 7.82422 7.14453C6.78255 8.64193 6.25521 10.8685 6.24219 13.8242V15.6406C6.24219 18.6224 6.80859 20.875 7.94141 22.3984C9.07422 23.9219 10.7344 24.6836 12.9219 24.6836C15.1224 24.6836 16.6914 24.2148 17.6289 23.2773V18.375H12.2969V14.0586H23.4883V25.4062ZM39.2695 13.082H46.3203V18.1797H39.2695V26.1484H33.8984V18.1797H26.8281V13.082H33.8984V5.44531H39.2695V13.082Z" fill="black"/>
</svg>
