<svg width="30" height="30" viewBox="0 0 30 30" fill="none" xmlns="http://www.w3.org/2000/svg">
<path d="M6.60156 30H0.9375V8.86719H6.60156V30ZM0.605469 3.39844C0.605469 2.55208 0.885417 1.85547 1.44531 1.30859C2.01823 0.761719 2.79297 0.488281 3.76953 0.488281C4.73307 0.488281 5.5013 0.761719 6.07422 1.30859C6.64714 1.85547 6.93359 2.55208 6.93359 3.39844C6.93359 4.25781 6.64062 4.96094 6.05469 5.50781C5.48177 6.05469 4.72005 6.32812 3.76953 6.32812C2.81901 6.32812 2.05078 6.05469 1.46484 5.50781C0.891927 4.96094 0.605469 4.25781 0.605469 3.39844ZM16.4648 8.86719L16.6406 11.3086C18.151 9.42057 20.1758 8.47656 22.7148 8.47656C24.9544 8.47656 26.6211 9.13411 27.7148 10.4492C28.8086 11.7643 29.3685 13.7305 29.3945 16.3477V30H23.75V16.4844C23.75 15.2865 23.4896 14.4206 22.9688 13.8867C22.4479 13.3398 21.582 13.0664 20.3711 13.0664C18.7826 13.0664 17.5911 13.7435 16.7969 15.0977V30H11.1523V8.86719H16.4648Z" fill="black"/>
</svg>
